<?xml version="1.0" encoding="UTF-8"?>
<!DOCTYPE svg PUBLIC "-//W3C//DTD SVG 1.1//EN" "http://www.w3.org/Graphics/SVG/1.1/DTD/svg11.dtd">
<svg xmlns="http://www.w3.org/2000/svg" version="1.1" width="1920px" height="567px" style="shape-rendering:geometricPrecision; text-rendering:geometricPrecision; image-rendering:optimizeQuality; fill-rule:evenodd; clip-rule:evenodd" xmlns:xlink="http://www.w3.org/1999/xlink">
<g><path style="opacity:0.99" fill="#04c0c7" d="M 35.5,-0.5 C 42.1667,-0.5 48.8333,-0.5 55.5,-0.5C 83.5067,8.71815 95.34,28.0515 91,57.5C 81.4541,84.1938 62.6208,95.3605 34.5,91C 15.8843,85.8852 4.21766,74.0519 -0.5,55.5C -0.5,49.1667 -0.5,42.8333 -0.5,36.5C 4.73553,17.5976 16.7355,5.26431 35.5,-0.5 Z"/></g>
<g><path style="opacity:0.993" fill="#04c0c7" d="M 177.5,43.5 C 206.981,42.1406 224.814,55.8073 231,84.5C 232.257,96.4728 229.59,107.473 223,117.5C 204.613,142.221 186.613,167.221 169,192.5C 150.026,213.678 128.192,217.178 103.5,203C 85.5391,188.343 80.0391,169.843 87,147.5C 88.6667,144.167 90.3333,140.833 92,137.5C 111.387,111.781 130.387,85.7805 149,59.5C 156.889,51.1426 166.389,45.8093 177.5,43.5 Z"/></g>
<g><path style="opacity:0.994" fill="#04c0c7" d="M 315.5,87.5 C 348.086,86.6109 366.419,102.278 370.5,134.5C 369.857,142.595 367.691,150.261 364,157.5C 289.667,259.833 215.333,362.167 141,464.5C 123.477,480.48 103.977,483.313 82.5,473C 59.5675,456.106 54.0675,434.606 66,408.5C 139.387,308.113 212.387,207.446 285,106.5C 292.821,96.1838 302.988,89.8505 315.5,87.5 Z"/></g>
<g><path style="opacity:0.988" fill="#04c0c7" d="M 663.5,92.5 C 678.858,91.2572 689.691,97.5906 696,111.5C 697.47,142.45 697.97,173.45 697.5,204.5C 721.502,204.333 745.502,204.5 769.5,205C 825.573,210.406 855.073,241.24 858,297.5C 858.937,328.527 858.604,359.527 857,390.5C 848.782,438.806 820.615,467.306 772.5,476C 749.121,479.218 726.121,477.552 703.5,471C 670.179,458.336 649.679,434.502 642,399.5C 640.457,392.578 639.457,385.578 639,378.5C 638.333,291.5 638.333,204.5 639,117.5C 642.014,103.987 650.181,95.6533 663.5,92.5 Z M 697.5,256.5 C 720.535,256.076 743.535,256.576 766.5,258C 787.308,262.82 797.808,275.986 798,297.5C 798.93,325.861 798.597,354.195 797,382.5C 792.025,409.968 775.525,423.968 747.5,424.5C 718.131,423.63 701.631,408.63 698,379.5C 697.5,338.501 697.333,297.501 697.5,256.5 Z"/></g>
<g><path style="opacity:0.986" fill="#04c0c7" d="M 936.5,92.5 C 957.3,91.8199 970.133,101.487 975,121.5C 975.303,148.197 962.137,161.03 935.5,160C 914.384,153.541 905.551,139.375 909,117.5C 913.635,104.025 922.802,95.692 936.5,92.5 Z"/></g>
<g><path style="opacity:0.981" fill="#05c0c7" d="M 933.5,201.5 C 945.824,199.331 956.324,202.665 965,211.5C 967.81,215.453 969.81,219.787 971,224.5C 971.667,300.833 971.667,377.167 971,453.5C 965.847,472.004 953.68,479.837 934.5,477C 922.136,473.302 914.636,465.136 912,452.5C 911.333,376.833 911.333,301.167 912,225.5C 914.472,213.199 921.639,205.199 933.5,201.5 Z"/></g>
<g><path style="opacity:0.991" fill="#04c0c7" d="M 1290.5,201.5 C 1310.17,199.072 1322.33,207.405 1327,226.5C 1327.33,277.5 1327.67,328.5 1328,379.5C 1331.63,408.634 1348.13,423.634 1377.5,424.5C 1401.57,424.915 1417.4,413.915 1425,391.5C 1426.64,386.286 1427.64,380.953 1428,375.5C 1428.33,325.167 1428.67,274.833 1429,224.5C 1434.71,206.72 1446.88,199.22 1465.5,202C 1478.72,205.939 1486.22,214.772 1488,228.5C 1488.67,277.5 1488.67,326.5 1488,375.5C 1484.51,434.988 1453.34,468.821 1394.5,477C 1363.16,480.866 1334.16,474.533 1307.5,458C 1284.3,439.1 1271.46,414.6 1269,384.5C 1268.33,330.833 1268.33,277.167 1269,223.5C 1272.35,212.318 1279.52,204.984 1290.5,201.5 Z"/></g>
<g><path style="opacity:0.992" fill="#04c0c7" d="M 1638.5,201.5 C 1670.8,198.733 1699.47,207.4 1724.5,227.5C 1743,211.272 1764.66,202.772 1789.5,202C 1860.24,198.086 1898.74,231.252 1905,301.5C 1905.43,352.836 1905.1,404.17 1904,455.5C 1897.64,474.177 1884.81,481.344 1865.5,477C 1856.69,473.526 1850.53,467.359 1847,458.5C 1845.68,405.878 1845.02,353.212 1845,300.5C 1841.03,263.902 1820.86,249.402 1784.5,257C 1769.59,260.909 1760.42,270.409 1757,285.5C 1755.28,291.718 1754.28,298.051 1754,304.5C 1753.67,354.833 1753.33,405.167 1753,455.5C 1746.64,474.177 1733.81,481.344 1714.5,477C 1705.67,473.5 1699.5,467.333 1696,458.5C 1694.69,405.87 1694.02,353.204 1694,300.5C 1690.31,264.219 1670.48,249.719 1634.5,257C 1617.71,261.353 1607.88,272.186 1605,289.5C 1604.07,294.799 1603.4,300.133 1603,305.5C 1602.98,356.879 1602.32,408.212 1601,459.5C 1590.25,478.649 1575.08,483.149 1555.5,473C 1549.23,467.957 1545.39,461.457 1544,453.5C 1543.33,402.5 1543.33,351.5 1544,300.5C 1547.88,240.797 1579.38,207.797 1638.5,201.5 Z"/></g>
<g><path style="opacity:0.987" fill="#04c0c7" d="M 1051.5,204.5 C 1102.83,204.333 1154.17,204.5 1205.5,205C 1224.63,208.729 1232.13,220.229 1228,239.5C 1226.89,243.729 1225.22,247.729 1223,251.5C 1182.17,308.333 1141.33,365.167 1100.5,422C 1135.17,422.333 1169.83,422.667 1204.5,423C 1224.78,427.041 1232.28,439.208 1227,459.5C 1222.87,468.158 1216.03,473.325 1206.5,475C 1152.5,475.667 1098.5,475.667 1044.5,475C 1029.11,471.774 1021.11,462.274 1020.5,446.5C 1020.75,440.814 1022.25,435.481 1025,430.5C 1066.13,372.402 1107.63,314.569 1149.5,257C 1116.17,256.667 1082.83,256.333 1049.5,256C 1032.82,250.811 1026.32,239.645 1030,222.5C 1033.74,212.249 1040.91,206.249 1051.5,204.5 Z"/></g>
<g><path style="opacity:0.993" fill="#04c0c7" d="M 290.5,355.5 C 319.802,352.714 338.302,365.38 346,393.5C 347.922,406.558 345.256,418.558 338,429.5C 318.199,456.934 298.032,484.101 277.5,511C 256.167,527.667 234.833,527.667 213.5,511C 198.606,495.095 195.106,476.928 203,456.5C 223.088,427.99 243.421,399.657 264,371.5C 271.255,363.383 280.089,358.049 290.5,355.5 Z"/></g>
<g><path style="opacity:0.991" fill="#04c0c7" d="M 394.5,566.5 C 387.833,566.5 381.167,566.5 374.5,566.5C 351.91,559.563 339.577,544.229 337.5,520.5C 340.256,491.577 356.089,475.911 385,473.5C 413.387,476.387 428.887,492.054 431.5,520.5C 429.423,544.229 417.09,559.563 394.5,566.5 Z"/></g>
</svg>
