<?xml version="1.0" encoding="UTF-8"?>
<!DOCTYPE svg PUBLIC "-//W3C//DTD SVG 1.1//EN" "http://www.w3.org/Graphics/SVG/1.1/DTD/svg11.dtd">
<svg xmlns="http://www.w3.org/2000/svg" version="1.1" width="2560px" height="449px" style="shape-rendering:geometricPrecision; text-rendering:geometricPrecision; image-rendering:optimizeQuality; fill-rule:evenodd; clip-rule:evenodd" xmlns:xlink="http://www.w3.org/1999/xlink">
<g><path style="opacity:0.997" fill="#eb001a" d="M 202.5,-0.5 C 216.5,-0.5 230.5,-0.5 244.5,-0.5C 288.263,4.19545 327.596,19.8621 362.5,46.5C 362.5,46.8333 362.5,47.1667 362.5,47.5C 299.619,99.5802 271.452,166.58 278,248.5C 285.966,310.459 314.133,360.793 362.5,399.5C 362.5,399.833 362.5,400.167 362.5,400.5C 325.131,429.514 282.798,445.514 235.5,448.5C 227.5,448.5 219.5,448.5 211.5,448.5C 116.347,439.173 50.1802,390.506 13,302.5C 6.25858,283.544 1.75858,264.21 -0.5,244.5C -0.5,230.5 -0.5,216.5 -0.5,202.5C 10.644,118.022 54.3107,56.8554 130.5,19C 153.6,8.72731 177.6,2.22731 202.5,-0.5 Z"/></g>
<g><path style="opacity:0.997" fill="#f79d1a" d="M 479.5,-0.5 C 493.5,-0.5 507.5,-0.5 521.5,-0.5C 612.183,11.3561 675.349,59.3561 711,143.5C 735.303,212.838 728.97,279.171 692,342.5C 649.698,406.415 590.198,441.748 513.5,448.5C 505.167,448.5 496.833,448.5 488.5,448.5C 441.515,445.287 399.515,429.287 362.5,400.5C 362.5,400.167 362.5,399.833 362.5,399.5C 418.388,354.049 446.721,295.049 447.5,222.5C 446.133,150.773 417.8,92.4396 362.5,47.5C 362.5,47.1667 362.5,46.8333 362.5,46.5C 397.107,20.0343 436.107,4.36763 479.5,-0.5 Z"/></g>
<g><path style="opacity:1" fill="#fe5f00" d="M 362.5,47.5 C 417.8,92.4396 446.133,150.773 447.5,222.5C 446.721,295.049 418.388,354.049 362.5,399.5C 314.133,360.793 285.966,310.459 278,248.5C 271.452,166.58 299.619,99.5802 362.5,47.5 Z"/></g>
<g><path style="opacity:0.98" fill="#201e1b" d="M 1502.5,50.5 C 1513.83,50.5 1525.17,50.5 1536.5,50.5C 1536.5,65.1667 1536.5,79.8333 1536.5,94.5C 1553.83,94.5 1571.17,94.5 1588.5,94.5C 1588.5,104.833 1588.5,115.167 1588.5,125.5C 1571.17,125.5 1553.83,125.5 1536.5,125.5C 1536.33,150.502 1536.5,175.502 1537,200.5C 1539.94,210.728 1546.77,215.728 1557.5,215.5C 1561.22,215.384 1564.89,214.884 1568.5,214C 1574.64,212.091 1580.64,209.925 1586.5,207.5C 1589,216.831 1592,225.998 1595.5,235C 1583.09,243.024 1569.42,247.19 1554.5,247.5C 1541.9,247.55 1530.23,244.383 1519.5,238C 1510.79,230.074 1505.62,220.241 1504,208.5C 1502.58,180.861 1502.08,153.194 1502.5,125.5C 1492.5,125.5 1482.5,125.5 1472.5,125.5C 1472.5,115.167 1472.5,104.833 1472.5,94.5C 1482.5,94.5 1492.5,94.5 1502.5,94.5C 1502.5,79.8333 1502.5,65.1667 1502.5,50.5 Z"/></g>
<g><path style="opacity:0.98" fill="#201e1b" d="M 1984.5,90.5 C 2025.15,90.7383 2050.98,110.405 2062,149.5C 2068.28,180.91 2060.11,207.743 2037.5,230C 2016.12,246.409 1992.45,250.742 1966.5,243C 1957.41,239.552 1949.91,234.052 1944,226.5C 1943.5,249.831 1943.33,273.164 1943.5,296.5C 1932.5,296.5 1921.5,296.5 1910.5,296.5C 1910.5,229.167 1910.5,161.833 1910.5,94.5C 1921.5,94.5 1932.5,94.5 1943.5,94.5C 1943.33,99.8437 1943.5,105.177 1944,110.5C 1955,98.582 1968.5,91.9153 1984.5,90.5 Z M 1976.5,122.5 C 2004.27,119.786 2021.77,131.786 2029,158.5C 2032.44,177.834 2026.94,194.001 2012.5,207C 1995.39,217.888 1978.05,218.222 1960.5,208C 1945.12,194.524 1939.29,177.691 1943,157.5C 1947.27,139.062 1958.44,127.395 1976.5,122.5 Z"/></g>
<g><path style="opacity:0.983" fill="#201e1b" d="M 939.5,91.5 C 964.672,87.7085 984.505,96.0418 999,116.5C 1016.71,94.3742 1039.54,86.5408 1067.5,93C 1092.16,99.7895 1106,115.956 1109,141.5C 1109.5,175.498 1109.67,209.498 1109.5,243.5C 1098.5,243.5 1087.5,243.5 1076.5,243.5C 1076.67,214.498 1076.5,185.498 1076,156.5C 1073.76,129.26 1059.26,118.427 1032.5,124C 1018.01,129.47 1010.17,139.97 1009,155.5C 1008.5,184.831 1008.33,214.165 1008.5,243.5C 997.5,243.5 986.5,243.5 975.5,243.5C 975.667,213.831 975.5,184.165 975,154.5C 971.853,128.374 957.353,118.207 931.5,124C 920.599,127.901 913.432,135.401 910,146.5C 908.537,178.792 908.037,211.125 908.5,243.5C 897.167,243.5 885.833,243.5 874.5,243.5C 874.5,193.833 874.5,144.167 874.5,94.5C 885.5,94.5 896.5,94.5 907.5,94.5C 907.334,100.176 907.501,105.843 908,111.5C 915.895,100.641 926.395,93.9743 939.5,91.5 Z"/></g>
<g><path style="opacity:0.985" fill="#201e1b" d="M 1198.5,91.5 C 1221.7,87.8298 1241.2,94.4965 1257,111.5C 1257.5,105.843 1257.67,100.176 1257.5,94.5C 1268.5,94.5 1279.5,94.5 1290.5,94.5C 1290.5,144.167 1290.5,193.833 1290.5,243.5C 1279.5,243.5 1268.5,243.5 1257.5,243.5C 1257.67,237.824 1257.5,232.157 1257,226.5C 1245.09,240.597 1229.76,247.597 1211,247.5C 1177.78,245.916 1154.78,229.916 1142,199.5C 1132.3,170.087 1136.3,142.754 1154,117.5C 1165.96,103.775 1180.79,95.1083 1198.5,91.5 Z M 1207.5,122.5 C 1234.71,120.842 1251.55,133.175 1258,159.5C 1261.75,182.831 1253.58,200.331 1233.5,212C 1211.73,220.055 1193.56,215.221 1179,197.5C 1166.78,175.92 1168.12,155.253 1183,135.5C 1189.91,128.631 1198.07,124.298 1207.5,122.5 Z"/></g>
<g><path style="opacity:0.983" fill="#201e1b" d="M 1373.5,91.5 C 1399.21,88.9083 1423.54,93.4083 1446.5,105C 1447.36,105.689 1448.02,106.522 1448.5,107.5C 1444.08,115.343 1439.91,123.343 1436,131.5C 1435.31,132.357 1434.48,133.023 1433.5,133.5C 1415.8,123.194 1396.8,119.36 1376.5,122C 1364.57,124.071 1359.74,130.904 1362,142.5C 1363.94,145.106 1366.44,146.939 1369.5,148C 1383.71,151.203 1398.05,153.869 1412.5,156C 1445.09,163.548 1457.26,183.381 1449,215.5C 1440.08,232.06 1426.25,241.894 1407.5,245C 1379.45,250.136 1352.78,246.136 1327.5,233C 1324.81,231.302 1322.48,229.302 1320.5,227C 1325.28,218.558 1330.45,210.392 1336,202.5C 1357.77,216.909 1381.27,220.742 1406.5,214C 1415.32,210.867 1418.82,204.7 1417,195.5C 1413.17,191 1408.34,188.167 1402.5,187C 1392.22,185.009 1381.89,183.342 1371.5,182C 1359.37,179.85 1348.37,175.183 1338.5,168C 1327.94,157.282 1324.11,144.449 1327,129.5C 1330.71,114.116 1339.88,103.283 1354.5,97C 1360.83,94.6729 1367.16,92.8396 1373.5,91.5 Z"/></g>
<g><path style="opacity:0.984" fill="#201e1b" d="M 1675.5,91.5 C 1723.91,88.7899 1751.41,111.457 1758,159.5C 1758.8,166.55 1758.63,173.55 1757.5,180.5C 1721.17,181.167 1684.83,181.833 1648.5,182.5C 1654.03,204.787 1668.36,216.454 1691.5,217.5C 1701.21,216.907 1710.54,214.74 1719.5,211C 1725.01,207.92 1730.35,204.92 1735.5,202C 1740.21,209.253 1745.04,216.42 1750,223.5C 1750.67,224.833 1750.67,226.167 1750,227.5C 1726.18,245.058 1699.68,250.891 1670.5,245C 1638.26,236.425 1619.76,215.592 1615,182.5C 1611.56,158.265 1616.89,136.265 1631,116.5C 1643.08,103.047 1657.92,94.7133 1675.5,91.5 Z M 1683.5,120.5 C 1706.81,120.808 1720.14,132.475 1723.5,155.5C 1698.5,155.667 1673.5,155.5 1648.5,155C 1652.21,135.119 1663.88,123.619 1683.5,120.5 Z"/></g>
<g><path style="opacity:0.971" fill="#211e1b" d="M 1851.5,91.5 C 1862.67,90.8881 1873.67,91.8881 1884.5,94.5C 1881.77,105.351 1878.44,116.017 1874.5,126.5C 1860.65,120.443 1847.32,121.276 1834.5,129C 1828.19,135.132 1824.69,142.632 1824,151.5C 1823.5,182.165 1823.33,212.832 1823.5,243.5C 1812.5,243.5 1801.5,243.5 1790.5,243.5C 1790.5,193.833 1790.5,144.167 1790.5,94.5C 1801.5,94.5 1812.5,94.5 1823.5,94.5C 1823.33,99.8437 1823.5,105.177 1824,110.5C 1830.78,100.54 1839.95,94.2064 1851.5,91.5 Z"/></g>
<g><path style="opacity:0.986" fill="#201e1b" d="M 2148.5,91.5 C 2171.02,88.1751 2190.19,94.5085 2206,110.5C 2206.5,105.177 2206.67,99.8437 2206.5,94.5C 2217.5,94.5 2228.5,94.5 2239.5,94.5C 2239.5,144.167 2239.5,193.833 2239.5,243.5C 2228.5,243.5 2217.5,243.5 2206.5,243.5C 2206.67,238.156 2206.5,232.823 2206,227.5C 2189.96,244.29 2170.46,250.457 2147.5,246C 2112,237.834 2091.84,215.667 2087,179.5C 2083.53,149.228 2093.36,124.395 2116.5,105C 2126.3,98.2394 2136.97,93.7394 2148.5,91.5 Z M 2157.5,122.5 C 2192.53,122.702 2209.37,140.368 2208,175.5C 2202.67,204.755 2185.17,217.922 2155.5,215C 2138.11,210.609 2126.94,199.776 2122,182.5C 2117.07,160.666 2123.24,142.833 2140.5,129C 2146.02,126.11 2151.69,123.943 2157.5,122.5 Z"/></g>
<g><path style="opacity:0.983" fill="#201e1b" d="M 2326.5,91.5 C 2346.78,90.2155 2366.44,93.0488 2385.5,100C 2390.16,101.995 2394.49,104.495 2398.5,107.5C 2394,115.833 2389.5,124.167 2385,132.5C 2384.44,133.022 2383.77,133.355 2383,133.5C 2362.61,121.683 2341.11,118.85 2318.5,125C 2309.67,130.696 2308.33,137.696 2314.5,146C 2316.5,147 2318.5,148 2320.5,149C 2333.78,151.612 2347.12,153.945 2360.5,156C 2396.39,163.616 2408.55,184.782 2397,219.5C 2387.68,233.131 2374.84,241.631 2358.5,245C 2334.6,249.603 2311.26,247.603 2288.5,239C 2281.68,236.091 2275.34,232.424 2269.5,228C 2274.47,219.211 2279.81,210.711 2285.5,202.5C 2308.46,218.049 2333.13,221.549 2359.5,213C 2367.23,208.136 2369.07,201.636 2365,193.5C 2360.73,190.118 2355.9,187.952 2350.5,187C 2334.18,185.145 2318.18,181.812 2302.5,177C 2278.38,165.57 2270.54,147.07 2279,121.5C 2285.49,108.024 2295.99,99.1905 2310.5,95C 2315.95,93.7451 2321.29,92.5784 2326.5,91.5 Z"/></g>
<g><path style="opacity:0.982" fill="#201e1b" d="M 2480.5,91.5 C 2501.56,90.1735 2521.89,93.3402 2541.5,101C 2545.63,102.38 2548.96,104.714 2551.5,108C 2547.21,116.073 2543.05,124.24 2539,132.5C 2538.44,133.022 2537.77,133.355 2537,133.5C 2517.37,122.256 2496.54,119.089 2474.5,124C 2463.88,129.185 2461.88,136.519 2468.5,146C 2472.83,148.584 2477.5,150.251 2482.5,151C 2497.84,152.389 2512.84,155.389 2527.5,160C 2548.62,168.402 2557.79,183.902 2555,206.5C 2552.39,219.897 2545.22,230.063 2533.5,237C 2510.8,247.629 2487.13,250.296 2462.5,245C 2447.95,242.389 2434.95,236.556 2423.5,227.5C 2428.6,218.961 2433.93,210.627 2439.5,202.5C 2462.93,218.518 2487.93,221.685 2514.5,212C 2523.22,205.372 2523.55,198.372 2515.5,191C 2512.05,189.073 2508.39,187.739 2504.5,187C 2492.5,185 2480.5,183 2468.5,181C 2431.64,170.748 2421.14,148.248 2437,113.5C 2444.17,104.487 2453.34,98.3207 2464.5,95C 2469.95,93.7451 2475.29,92.5784 2480.5,91.5 Z"/></g>
<g><path style="opacity:0.957" fill="#201e1b" d="M 876.5,290.5 C 881.833,290.5 887.167,290.5 892.5,290.5C 892.333,301.838 892.5,313.172 893,324.5C 901.059,316.927 910.559,314.427 921.5,317C 938.969,322.59 947.969,334.59 948.5,353C 947.72,375.789 936.053,387.955 913.5,389.5C 905.345,390.062 898.512,387.396 893,381.5C 892.503,383.81 892.337,386.143 892.5,388.5C 887.167,388.5 881.833,388.5 876.5,388.5C 876.5,355.833 876.5,323.167 876.5,290.5 Z M 907.5,331.5 C 927.642,332.408 935.142,342.742 930,362.5C 922.671,375.09 912.504,377.923 899.5,371C 890.298,361.12 889.131,350.287 896,338.5C 899.263,335.037 903.097,332.704 907.5,331.5 Z"/></g>
<g><path style="opacity:0.957" fill="#201e1b" d="M 1807.5,290.5 C 1812.83,290.5 1818.17,290.5 1823.5,290.5C 1823.5,323.167 1823.5,355.833 1823.5,388.5C 1818.17,388.5 1812.83,388.5 1807.5,388.5C 1807.66,386.143 1807.5,383.81 1807,381.5C 1798.59,389.113 1788.76,391.613 1777.5,389C 1760.29,383.269 1751.62,371.269 1751.5,353C 1752.07,330.433 1763.57,318.266 1786,316.5C 1794.17,316.221 1801.17,318.888 1807,324.5C 1807.5,313.172 1807.67,301.838 1807.5,290.5 Z M 1783.5,331.5 C 1800.28,331.448 1808.45,339.781 1808,356.5C 1803.65,372.923 1793.49,378.09 1777.5,372C 1767.04,363.322 1764.88,352.822 1771,340.5C 1774.3,336.118 1778.47,333.118 1783.5,331.5 Z"/></g>
<g><path style="opacity:0.963" fill="#211e1c" d="M 1359.5,297.5 C 1364.83,297.5 1370.17,297.5 1375.5,297.5C 1375.5,304.5 1375.5,311.5 1375.5,318.5C 1383.83,318.5 1392.17,318.5 1400.5,318.5C 1400.5,323.167 1400.5,327.833 1400.5,332.5C 1392.17,332.5 1383.83,332.5 1375.5,332.5C 1375.06,345.241 1375.56,357.908 1377,370.5C 1379.13,373.316 1381.97,374.649 1385.5,374.5C 1389.97,374.066 1394.13,372.733 1398,370.5C 1400.02,374.903 1401.86,379.403 1403.5,384C 1394.88,389.202 1385.55,390.869 1375.5,389C 1368.21,387.712 1363.38,383.545 1361,376.5C 1359.57,361.892 1359.07,347.225 1359.5,332.5C 1354.83,332.5 1350.17,332.5 1345.5,332.5C 1345.5,327.833 1345.5,323.167 1345.5,318.5C 1350.17,318.5 1354.83,318.5 1359.5,318.5C 1359.5,311.5 1359.5,304.5 1359.5,297.5 Z"/></g>
<g><path style="opacity:0.955" fill="#211e1b" d="M 1093.5,316.5 C 1105.76,314.385 1115.76,318.052 1123.5,327.5C 1131.61,317.961 1141.95,314.461 1154.5,317C 1165.97,319.139 1172.81,325.973 1175,337.5C 1175.5,354.497 1175.67,371.497 1175.5,388.5C 1170.17,388.5 1164.83,388.5 1159.5,388.5C 1159.94,372.443 1159.44,356.443 1158,340.5C 1152.75,331.156 1145.25,328.989 1135.5,334C 1132.13,336.365 1129.96,339.532 1129,343.5C 1128.5,358.496 1128.33,373.496 1128.5,388.5C 1123.17,388.5 1117.83,388.5 1112.5,388.5C 1112.9,372.79 1112.4,357.123 1111,341.5C 1109.17,334.659 1104.67,331.326 1097.5,331.5C 1089.19,331.561 1084.02,335.561 1082,343.5C 1081.5,358.496 1081.33,373.496 1081.5,388.5C 1076.17,388.5 1070.83,388.5 1065.5,388.5C 1065.5,365.167 1065.5,341.833 1065.5,318.5C 1070.83,318.5 1076.17,318.5 1081.5,318.5C 1081.34,320.527 1081.5,322.527 1082,324.5C 1085.15,320.689 1088.98,318.023 1093.5,316.5 Z"/></g>
<g><path style="opacity:0.972" fill="#201e1b" d="M 1215.5,316.5 C 1226.73,314.413 1236.23,317.413 1244,325.5C 1244.5,323.19 1244.66,320.857 1244.5,318.5C 1249.83,318.5 1255.17,318.5 1260.5,318.5C 1260.5,341.833 1260.5,365.167 1260.5,388.5C 1255.17,388.5 1249.83,388.5 1244.5,388.5C 1244.66,386.143 1244.5,383.81 1244,381.5C 1235.57,389.036 1225.73,391.536 1214.5,389C 1197.04,383.439 1188.04,371.439 1187.5,353C 1188.1,333.921 1197.44,321.754 1215.5,316.5 Z M 1219.5,331.5 C 1238.45,331.29 1246.62,340.623 1244,359.5C 1239.93,371.123 1231.76,375.957 1219.5,374C 1207.37,369.344 1202.54,360.51 1205,347.5C 1206.95,339.393 1211.78,334.06 1219.5,331.5 Z"/></g>
<g><path style="opacity:0.964" fill="#201e1b" d="M 1297.5,316.5 C 1305.55,316.225 1313.55,316.725 1321.5,318C 1326.43,319.13 1330.76,321.296 1334.5,324.5C 1332.24,328.697 1329.74,332.697 1327,336.5C 1318.01,331.367 1308.51,329.867 1298.5,332C 1293.33,334.213 1292.33,337.546 1295.5,342C 1305.18,344.225 1314.84,346.558 1324.5,349C 1336.41,356.12 1339.24,365.954 1333,378.5C 1329.24,383.295 1324.41,386.462 1318.5,388C 1306.32,390.436 1294.32,389.769 1282.5,386C 1279.17,384.669 1276.17,382.835 1273.5,380.5C 1275.81,376.205 1278.47,372.205 1281.5,368.5C 1292.49,375.664 1304.15,377.164 1316.5,373C 1319.8,370.199 1320.13,367.199 1317.5,364C 1308.27,361.392 1298.94,359.059 1289.5,357C 1276.31,350.097 1273.15,339.93 1280,326.5C 1284.71,321.004 1290.54,317.671 1297.5,316.5 Z"/></g>
<g><path style="opacity:0.957" fill="#201e1b" d="M 1438.5,316.5 C 1458.2,314.071 1471.36,322.071 1478,340.5C 1479.26,346.769 1479.76,353.102 1479.5,359.5C 1462.5,359.5 1445.5,359.5 1428.5,359.5C 1431.67,371.145 1439.33,376.311 1451.5,375C 1457.51,374.077 1463.01,371.91 1468,368.5C 1471.41,371.794 1474.25,375.627 1476.5,380C 1465.28,388.638 1452.61,391.638 1438.5,389C 1423.47,385.302 1414.64,375.802 1412,360.5C 1408.92,338.29 1417.75,323.624 1438.5,316.5 Z M 1442.5,330.5 C 1454.23,329.679 1460.89,335.012 1462.5,346.5C 1451.17,346.5 1439.83,346.5 1428.5,346.5C 1430.02,338.322 1434.68,332.989 1442.5,330.5 Z"/></g>
<g><path style="opacity:0.974" fill="#201e1b" d="M 1521.5,316.5 C 1527.2,316.375 1532.87,316.708 1538.5,317.5C 1537.64,323.078 1535.97,328.411 1533.5,333.5C 1523.22,328.979 1515.72,331.646 1511,341.5C 1510.5,357.163 1510.33,372.83 1510.5,388.5C 1505.17,388.5 1499.83,388.5 1494.5,388.5C 1494.5,365.167 1494.5,341.833 1494.5,318.5C 1499.5,318.5 1504.5,318.5 1509.5,318.5C 1509.34,320.857 1509.5,323.19 1510,325.5C 1512.68,320.922 1516.52,317.922 1521.5,316.5 Z"/></g>
<g><path style="opacity:0.964" fill="#201e1b" d="M 1571.5,316.5 C 1584.09,314.646 1595.42,317.48 1605.5,325C 1603.03,329.456 1600.19,333.623 1597,337.5C 1587.64,330.746 1577.8,329.913 1567.5,335C 1558.22,344.519 1556.72,355.019 1563,366.5C 1569,373.388 1576.5,375.888 1585.5,374C 1589.62,372.441 1593.62,370.607 1597.5,368.5C 1600.35,372.21 1602.69,376.21 1604.5,380.5C 1602,384.44 1598.33,386.94 1593.5,388C 1578.09,392.258 1564.25,389.425 1552,379.5C 1541.38,365.243 1539.71,349.91 1547,333.5C 1552.95,324.455 1561.12,318.789 1571.5,316.5 Z"/></g>
<g><path style="opacity:0.968" fill="#201e1b" d="M 1639.5,316.5 C 1650.7,314.401 1660.2,317.401 1668,325.5C 1668.5,323.19 1668.66,320.857 1668.5,318.5C 1673.83,318.5 1679.17,318.5 1684.5,318.5C 1684.5,341.833 1684.5,365.167 1684.5,388.5C 1679.17,388.5 1673.83,388.5 1668.5,388.5C 1668.66,385.813 1668.5,383.146 1668,380.5C 1664.77,385.205 1660.27,388.038 1654.5,389C 1628.36,391.204 1614.03,379.204 1611.5,353C 1612.1,333.923 1621.43,321.757 1639.5,316.5 Z M 1643.5,331.5 C 1662.45,331.29 1670.62,340.623 1668,359.5C 1663.93,371.123 1655.76,375.957 1643.5,374C 1630.95,369.082 1626.12,359.915 1629,346.5C 1631.35,338.984 1636.18,333.984 1643.5,331.5 Z"/></g>
<g><path style="opacity:0.935" fill="#211e1b" d="M 1730.5,316.5 C 1736.2,316.375 1741.87,316.708 1747.5,317.5C 1746.64,323.084 1744.97,328.418 1742.5,333.5C 1728.61,328.351 1720.78,333.018 1719,347.5C 1718.5,361.163 1718.33,374.829 1718.5,388.5C 1713.17,388.5 1707.83,388.5 1702.5,388.5C 1702.5,365.167 1702.5,341.833 1702.5,318.5C 1707.83,318.5 1713.17,318.5 1718.5,318.5C 1718.34,320.527 1718.5,322.527 1719,324.5C 1722.15,320.689 1725.98,318.023 1730.5,316.5 Z"/></g>
<g><path style="opacity:0.967" fill="#201e1b" d="M 948.5,318.5 C 954.509,318.334 960.509,318.501 966.5,319C 973.54,331.582 980.707,344.082 988,356.5C 994.452,343.76 1001.29,331.26 1008.5,319C 1014.5,318.333 1020.5,318.333 1026.5,319C 1009.5,349.333 992.5,379.667 975.5,410C 969.5,410.667 963.5,410.667 957.5,410C 964.374,397.752 971.374,385.585 978.5,373.5C 968.221,355.273 958.221,336.939 948.5,318.5 Z"/></g>
</svg>
