<svg width="14" height="18" viewBox="0 0 14 18" fill="none" xmlns="http://www.w3.org/2000/svg">
<path fill-rule="evenodd" clip-rule="evenodd" d="M7.00002 0.397736C4.83482 0.397736 3.07957 2.15298 3.07957 4.31819V7.45456H1.77275C1.19536 7.45456 0.727295 7.92262 0.727295 8.50001V16.8637C0.727295 17.441 1.19536 17.9091 1.77275 17.9091H12.2273C12.8047 17.9091 13.2728 17.441 13.2728 16.8637V8.50001C13.2728 7.92262 12.8047 7.45456 12.2273 7.45456H10.9205V4.31819C10.9205 2.15298 9.16523 0.397736 7.00002 0.397736ZM9.3523 7.45456V4.31819C9.3523 3.01907 8.29915 1.96592 7.00002 1.96592C5.7009 1.96592 4.64775 3.01907 4.64775 4.31819V7.45456H9.3523Z" fill="#2C3338"/>
</svg>
